<?xml version="1.0" standalone="no"?>
<!DOCTYPE svg PUBLIC "-//W3C//DTD SVG 1.1//EN" 
  "http://www.w3.org/Graphics/SVG/1.1/DTD/svg11.dtd">
<svg width="321.000mm" height="160.000mm" version="1.1"
     viewBox="0 0 321.000 160.000"
     xmlns="http://www.w3.org/2000/svg"  xmlns:xlink="http://www.w3.org/1999/xlink" 
     xmlns:fpd="http://www.schaeffer-ag.de">
  <desc>Created with the Front Panel Designer by the export of the file 'SY Helena front panel Power Supply Low Voltage Anodized v1.1.fpd'.</desc>
  <defs>
    <pattern id="revside-fill" x="1" y="1" width="3.210" height="3.210" patternUnits="userSpaceOnUse">
      <line x1="0" y1="0" x2="3.210" y2="3.210" style="stroke-width:0.321; stroke:black; stroke-dasharray:none;" />
      <line x1="0" y1="3.210" x2="3.210" y2="0" style="stroke-width:0.321; stroke:black; stroke-dasharray:none;" />
    </pattern>
    <pattern id="revside-fill-silver" x="1" y="1" width="3.210" height="3.210" patternUnits="userSpaceOnUse">
      <line x1="0" y1="0" x2="3.210" y2="3.210" style="stroke-width:0.321; stroke:#e0e0e0; stroke-dasharray:none;" />
      <line x1="0" y1="3.210" x2="3.210" y2="0" style="stroke-width:0.321; stroke:#e0e0e0; stroke-dasharray:none;" />
    </pattern>
  </defs>
<g transform="scale(1,-1) translate( -0.000, -160.000)" 
   fill-rule="evenodd"
   style="stroke-linecap:round; stroke-linejoin:round; stroke-opacity:1.0; stroke-opacity:1.0;">
<path d="
M316.000 160.000
A5.000,5.000 0 0,0 321.000,155.000
L321.000 5.000
A5.000,5.000 0 0,0 316.000,0.000
L5.000 0.000
A5.000,5.000 0 0,0 0.000,5.000
L0.000 155.000
A5.000,5.000 0 0,0 5.000,160.000
L316.000 160.000
" 
fill="#034595" fill-opacity="1.000000" vector-effect="non-scaling-stroke" stroke="#000000" stroke-width="0.100mm" stroke-opacity="1.000000" fpd:visible="front back" />
<path d="
M316.000 160.000
A5.000,5.000 0 0,0 321.000,155.000
L321.000 5.000
A5.000,5.000 0 0,0 316.000,0.000
L5.000 0.000
A5.000,5.000 0 0,0 0.000,5.000
L0.000 155.000
A5.000,5.000 0 0,0 5.000,160.000
L316.000 160.000
M5.000 158.000
A3.000,3.000 0 0,1 2.000,155.000
L2.000 155.000
L2.000 5.000
L2.000 5.000
L2.000 5.000
L2.000 5.000
A3.000,3.000 0 0,1 5.000,2.000
L5.000 2.000
L316.000 2.000
L316.000 2.000
A3.000,3.000 0 0,1 319.000,5.000
L319.000 5.000
L319.000 155.000
L319.000 155.000
A3.000,3.000 0 0,1 318.991,155.235
A3.000,3.000 0 0,1 316.000,158.000
L5.000 158.000
" 
fill="#e0e0e0" fill-opacity="1.000000" vector-effect="non-scaling-stroke" stroke="#0000ff" stroke-width="0.100mm" stroke-opacity="1.000000" fpd:visible="front" />
<path d="
M316.000 160.000
A5.000,5.000 0 0,0 321.000,155.000
L321.000 5.000
A5.000,5.000 0 0,0 316.000,0.000
L5.000 0.000
A5.000,5.000 0 0,0 0.000,5.000
L0.000 155.000
A5.000,5.000 0 0,0 5.000,160.000
L316.000 160.000
" 
fill="none" vector-effect="non-scaling-stroke" stroke="#0000ff" stroke-width="0.100mm" stroke-opacity="1.000000" fpd:visible="front" />
<path d="
M29.132 58.116
A0.113,0.113 0 0,1 29.075,58.288
A0.157,0.157 0 0,1 28.960,58.000
A0.288,0.288 0 0,1 29.247,58.000
A0.250,0.250 0 0,1 29.075,58.461
A0.637,0.637 0 0,1 28.557,57.885
A0.928,0.928 0 0,1 29.478,56.849
A2.303,2.303 0 0,1 30.744,57.310
A8.959,8.959 0 0,1 31.953,58.864
L32.644 59.728
A2.606,2.606 0 0,1 32.069,58.749
A2.694,2.694 0 0,0 29.478,56.849
A2.005,2.005 0 0,1 30.917,57.828
A5.133,5.133 0 0,0 32.299,59.382
L32.644 59.728
A4.904,4.904 0 0,0 31.090,58.749
A1.137,1.137 0 0,0 29.708,59.209
A1.814,1.814 0 0,0 29.708,60.534
A3.454,3.454 0 0,0 31.953,62.376
A0.765,0.765 0 0,0 32.817,61.282
A3.478,3.478 0 0,0 29.708,59.209
A3.213,3.213 0 0,0 32.069,62.318
A0.636,0.636 0 0,0 32.702,61.340
A3.774,3.774 0 0,0 29.708,59.209
A1.473,1.473 0 0,0 28.154,61.052
L28.269 61.397
A1.766,1.766 0 0,0 29.593,62.261
" 
fill="none" vector-effect="non-scaling-stroke" stroke="#ffffff" stroke-width="0.400mm" stroke-opacity="1.000000" fpd:visible="front" fpd:print_element="0" fpd:engraving_ral_9010="1" />
<path d="
M32.472 58.000
A7.074,7.074 0 0,0 33.911,59.382
A1.069,1.069 0 0,0 34.890,59.497
A0.575,0.575 0 0,0 35.120,58.576
A1.889,1.889 0 0,0 33.393,57.943
" 
fill="none" vector-effect="non-scaling-stroke" stroke="#ffffff" stroke-width="0.400mm" stroke-opacity="1.000000" fpd:visible="front" fpd:print_element="0" fpd:engraving_ral_9010="1" />
<path d="
M34.602 59.555
A1.710,1.710 0 0,1 33.911,58.979
A4.198,4.198 0 0,1 33.278,57.540
A0.573,0.573 0 0,1 33.566,56.907
A0.702,0.702 0 0,0 33.105,57.713
A2.690,2.690 0 0,0 34.372,59.497
L33.911 59.382
A2.755,2.755 0 0,1 32.933,58.000
A1.218,1.218 0 0,1 32.933,57.252
A0.506,0.506 0 0,1 33.336,56.907
A1.830,1.830 0 0,1 34.545,57.137
A3.923,3.923 0 0,1 35.581,58.000
" 
fill="none" vector-effect="non-scaling-stroke" stroke="#ffffff" stroke-width="0.400mm" stroke-opacity="1.000000" fpd:visible="front" fpd:print_element="0" fpd:engraving_ral_9010="1" />
<path d="
M35.581 57.999
L36.099 58.575
A4.877,4.877 0 0,0 37.020,59.381
A0.399,0.399 0 0,0 37.596,58.863
L36.560 56.848
L35.984 56.848
L37.135 58.978
A0.295,0.295 0 0,1 37.020,59.381
A0.280,0.280 0 0,0 37.308,59.324
A0.288,0.288 0 0,0 37.366,58.978
L36.329 56.963
L37.135 57.999
L37.423 58.287
A7.387,7.387 0 0,0 38.920,59.381
A0.314,0.314 0 0,0 39.381,59.266
A0.322,0.322 0 0,0 39.381,58.978
L38.575 57.366
A0.322,0.322 0 0,1 38.575,57.078
A0.361,0.361 0 0,1 39.035,56.906
A0.278,0.278 0 0,0 38.748,57.309
L39.381 58.518
A2.789,2.789 0 0,1 39.554,58.921
A0.411,0.411 0 0,1 38.920,59.381
A0.256,0.256 0 0,0 39.266,59.036
L38.460 57.481
A0.427,0.427 0 0,1 39.035,56.906
A2.858,2.858 0 0,1 40.187,57.999
" 
fill="none" vector-effect="non-scaling-stroke" stroke="#ffffff" stroke-width="0.400mm" stroke-opacity="1.000000" fpd:visible="front" fpd:print_element="0" fpd:engraving_ral_9010="1" />
<path d="
M40.187 57.998
A7.074,7.074 0 0,0 41.626,59.380
A1.069,1.069 0 0,0 42.605,59.495
A0.575,0.575 0 0,0 42.835,58.574
A1.889,1.889 0 0,0 41.108,57.941
" 
fill="none" vector-effect="non-scaling-stroke" stroke="#ffffff" stroke-width="0.400mm" stroke-opacity="1.000000" fpd:visible="front" fpd:print_element="0" fpd:engraving_ral_9010="1" />
<path d="
M42.317 59.553
A1.710,1.710 0 0,1 41.626,58.977
A4.198,4.198 0 0,1 40.993,57.538
A0.573,0.573 0 0,1 41.281,56.905
A0.702,0.702 0 0,0 40.820,57.711
A2.690,2.690 0 0,0 42.087,59.495
L41.626 59.380
A2.755,2.755 0 0,1 40.648,57.998
A1.218,1.218 0 0,1 40.648,57.250
A0.506,0.506 0 0,1 41.051,56.905
A1.830,1.830 0 0,1 42.260,57.135
A3.923,3.923 0 0,1 43.296,57.998
" 
fill="none" vector-effect="non-scaling-stroke" stroke="#ffffff" stroke-width="0.400mm" stroke-opacity="1.000000" fpd:visible="front" fpd:print_element="0" fpd:engraving_ral_9010="1" />
<path d="
M43.296 57.997
L44.390 59.379
A0.407,0.407 0 0,1 44.447,59.782
A0.144,0.144 0 0,1 44.217,59.609
A8.631,8.631 0 0,1 45.138,59.034
A0.253,0.253 0 0,0 45.253,58.688
A26.195,26.195 0 0,0 44.447,57.249
A0.230,0.230 0 0,1 44.678,56.904
A0.270,0.270 0 0,0 44.275,57.076
A0.580,0.580 0 0,0 44.332,57.479
L45.023 58.746
A0.243,0.243 0 0,1 45.023,58.976
A0.696,0.696 0 0,1 44.735,59.264
A0.388,0.388 0 0,0 44.793,58.746
L44.102 57.537
A0.450,0.450 0 0,1 44.678,56.904
A1.989,1.989 0 0,1 45.196,57.249
A3.907,3.907 0 0,1 45.829,57.997
" 
fill="none" vector-effect="non-scaling-stroke" stroke="#ffffff" stroke-width="0.400mm" stroke-opacity="1.000000" fpd:visible="front" fpd:print_element="0" fpd:engraving_ral_9010="1" />
<path d="
M45.829 57.996
A4.863,4.863 0 0,1 46.232,58.457
A3.300,3.300 0 0,0 47.902,59.608
A0.723,0.723 0 0,0 48.708,58.515
L48.420 57.996
A2.552,2.552 0 0,0 46.865,56.845
A0.493,0.493 0 0,0 46.405,57.421
A3.304,3.304 0 0,0 47.729,59.436
L47.268 59.321
A3.576,3.576 0 0,1 46.174,57.536
A0.565,0.565 0 0,1 46.865,56.845
A0.642,0.642 0 0,0 46.635,57.478
A3.241,3.241 0 0,0 48.189,59.608
" 
fill="none" vector-effect="non-scaling-stroke" stroke="#ffffff" stroke-width="0.400mm" stroke-opacity="1.000000" fpd:visible="front" fpd:print_element="0" fpd:engraving_ral_9010="1" />
<path d="
M49.399 59.378
L48.362 57.478
A0.341,0.341 0 0,1 48.420,57.075
A0.324,0.324 0 0,1 48.880,57.075
A0.289,0.289 0 0,0 48.593,57.478
L49.686 59.436
L49.226 59.436
L48.189 57.593
A0.692,0.692 0 0,1 48.074,57.248
A0.333,0.333 0 0,1 48.477,56.903
A1.298,1.298 0 0,1 49.111,57.248
L49.859 57.996
" 
fill="none" vector-effect="non-scaling-stroke" stroke="#ffffff" stroke-width="0.400mm" stroke-opacity="1.000000" fpd:visible="front" fpd:print_element="0" fpd:engraving_ral_9010="1" />
<path d="
M49.859 57.996
L51.413 59.839
" 
fill="none" vector-effect="non-scaling-stroke" stroke="#ffffff" stroke-width="0.400mm" stroke-opacity="1.000000" fpd:visible="front" fpd:print_element="0" fpd:engraving_ral_9010="1" />
<path d="
M51.413 60.760
L52.968 60.760
" 
fill="none" vector-effect="non-scaling-stroke" stroke="#ffffff" stroke-width="0.400mm" stroke-opacity="1.000000" fpd:visible="front" fpd:print_element="0" fpd:engraving_ral_9010="1" />
<path d="
M53.026 62.199
L50.838 58.342
A2.236,2.236 0 0,1 50.550,57.133
A0.314,0.314 0 0,1 50.953,56.845
A0.477,0.477 0 0,0 50.377,57.306
A2.602,2.602 0 0,0 50.723,58.630
L52.853 62.372
L53.371 62.372
L50.838 57.824
A1.354,1.354 0 0,1 50.665,57.133
A0.294,0.294 0 0,1 50.953,56.845
A2.581,2.581 0 0,1 52.623,57.996
" 
fill="none" vector-effect="non-scaling-stroke" stroke="#ffffff" stroke-width="0.400mm" stroke-opacity="1.000000" fpd:visible="front" fpd:print_element="0" fpd:engraving_ral_9010="1" />
<path d="
M52.622 57.996
L52.852 58.284
A5.209,5.209 0 0,0 54.061,59.378
L54.579 59.493
A1.095,1.095 0 0,1 53.889,59.033
A7.381,7.381 0 0,1 53.140,57.593
A0.631,0.631 0 0,1 53.140,57.133
A0.463,0.463 0 0,1 53.658,56.845
A0.697,0.697 0 0,0 52.910,57.766
A3.565,3.565 0 0,0 54.061,59.378
A1.432,1.432 0 0,0 54.867,59.608
A0.647,0.647 0 0,0 55.501,58.975
A2.097,2.097 0 0,0 53.658,56.845
A0.355,0.355 0 0,0 53.313,57.306
A6.169,6.169 0 0,0 54.176,59.033
A1.039,1.039 0 0,0 55.270,59.436
" 
fill="none" vector-effect="non-scaling-stroke" stroke="#ffffff" stroke-width="0.400mm" stroke-opacity="1.000000" fpd:visible="front" fpd:print_element="0" fpd:engraving_ral_9010="1" />
<path d="
M54.579 57.536
A0.669,0.669 0 0,1 55.443,57.421
A1.912,1.912 0 0,1 55.961,57.996
" 
fill="none" vector-effect="non-scaling-stroke" stroke="#ffffff" stroke-width="0.400mm" stroke-opacity="1.000000" fpd:visible="front" fpd:print_element="0" fpd:engraving_ral_9010="1" />
<path d="
M55.961 57.995
L57.055 59.377
A0.407,0.407 0 0,1 57.112,59.780
A0.144,0.144 0 0,1 56.882,59.608
A8.631,8.631 0 0,1 57.803,59.032
A0.253,0.253 0 0,0 57.918,58.686
A26.195,26.195 0 0,0 57.112,57.247
A0.230,0.230 0 0,1 57.343,56.902
A0.270,0.270 0 0,0 56.940,57.074
A0.580,0.580 0 0,0 56.997,57.477
L57.688 58.744
A0.243,0.243 0 0,1 57.688,58.974
A0.696,0.696 0 0,1 57.400,59.262
A0.388,0.388 0 0,0 57.458,58.744
L56.767 57.535
A0.450,0.450 0 0,1 57.343,56.902
A1.989,1.989 0 0,1 57.861,57.247
A3.907,3.907 0 0,1 58.494,57.995
" 
fill="none" vector-effect="non-scaling-stroke" stroke="#ffffff" stroke-width="0.400mm" stroke-opacity="1.000000" fpd:visible="front" fpd:print_element="0" fpd:engraving_ral_9010="1" />
<path d="
M116.460 145.443
A0.113,0.113 0 0,1 116.402,145.615
A0.157,0.157 0 0,1 116.287,145.327
A0.288,0.288 0 0,1 116.575,145.327
A0.250,0.250 0 0,1 116.402,145.788
A0.637,0.637 0 0,1 115.884,145.212
A0.928,0.928 0 0,1 116.805,144.176
A2.221,2.221 0 0,1 118.475,144.867
A15.924,15.924 0 0,1 120.087,147.400
A3.668,3.668 0 0,0 121.756,149.358
A3.989,3.989 0 0,1 120.202,147.170
A5.406,5.406 0 0,0 117.669,144.349
A4.603,4.603 0 0,1 118.935,145.903
L119.972 147.746
A4.449,4.449 0 0,0 122.447,149.645
" 
fill="none" vector-effect="non-scaling-stroke" stroke="#ffffff" stroke-width="0.400mm" stroke-opacity="1.000000" fpd:visible="front" fpd:print_element="0" fpd:engraving_ral_9010="1" />
<path d="
M117.669 146.652
A2.432,2.432 0 0,1 119.281,148.782
A2.079,2.079 0 0,0 118.763,147.112
A1.371,1.371 0 0,0 117.381,146.709
A0.817,0.817 0 0,0 116.863,147.861
A2.276,2.276 0 0,0 117.899,148.897
A7.616,7.616 0 0,0 120.893,149.645
A2.956,2.956 0 0,0 121.987,149.473
A1.052,1.052 0 0,0 122.332,147.688
A2.746,2.746 0 0,0 121.584,147.112
A2.230,2.230 0 0,1 122.447,148.091
A1.256,1.256 0 0,1 122.044,149.473
A2.145,2.145 0 0,0 122.620,149.127
A0.722,0.722 0 0,0 122.850,148.264
A1.904,1.904 0 0,0 122.275,147.515
A2.986,2.986 0 0,0 121.008,146.940
A0.129,0.129 0 0,0 120.893,147.170
A1.833,1.833 0 0,0 121.296,147.170
A1.237,1.237 0 0,0 121.814,145.270
A3.260,3.260 0 0,0 120.950,144.406
A1.160,1.160 0 0,0 119.914,144.349
A0.900,0.900 0 0,1 120.663,144.464
A2.641,2.641 0 0,1 121.641,145.558
A1.246,1.246 0 0,1 121.296,147.170
A1.186,1.186 0 0,0 122.332,146.249
A1.826,1.826 0 0,0 121.929,144.924
A1.758,1.758 0 0,0 119.914,144.349
A0.539,0.539 0 0,0 119.799,145.155
A2.330,2.330 0 0,0 120.547,145.730
" 
fill="none" vector-effect="non-scaling-stroke" stroke="#ffffff" stroke-width="0.400mm" stroke-opacity="1.000000" fpd:visible="front" fpd:print_element="0" fpd:engraving_ral_9010="1" />
<path d="
M122.678 145.327
A4.863,4.863 0 0,1 123.081,145.788
A3.300,3.300 0 0,0 124.751,146.940
A0.723,0.723 0 0,0 125.557,145.846
L125.269 145.327
A2.552,2.552 0 0,0 123.714,144.176
A0.493,0.493 0 0,0 123.254,144.752
A3.304,3.304 0 0,0 124.578,146.767
L124.117 146.652
A3.576,3.576 0 0,1 123.023,144.867
A0.565,0.565 0 0,1 123.714,144.176
A0.642,0.642 0 0,0 123.484,144.809
A3.241,3.241 0 0,0 125.038,146.940
" 
fill="none" vector-effect="non-scaling-stroke" stroke="#ffffff" stroke-width="0.400mm" stroke-opacity="1.000000" fpd:visible="front" fpd:print_element="0" fpd:engraving_ral_9010="1" />
<path d="
M126.248 146.709
L125.211 144.809
A0.341,0.341 0 0,1 125.269,144.406
A0.324,0.324 0 0,1 125.729,144.406
A0.289,0.289 0 0,0 125.441,144.809
L126.535 146.767
L126.075 146.767
L125.038 144.924
A0.692,0.692 0 0,1 124.923,144.579
A0.333,0.333 0 0,1 125.326,144.234
A1.298,1.298 0 0,1 125.960,144.579
L126.708 145.327
" 
fill="none" vector-effect="non-scaling-stroke" stroke="#ffffff" stroke-width="0.400mm" stroke-opacity="1.000000" fpd:visible="front" fpd:print_element="0" fpd:engraving_ral_9010="1" />
<path d="
M126.709 145.327
L128.263 147.170
" 
fill="none" vector-effect="non-scaling-stroke" stroke="#ffffff" stroke-width="0.400mm" stroke-opacity="1.000000" fpd:visible="front" fpd:print_element="0" fpd:engraving_ral_9010="1" />
<path d="
M128.263 148.091
L129.818 148.091
" 
fill="none" vector-effect="non-scaling-stroke" stroke="#ffffff" stroke-width="0.400mm" stroke-opacity="1.000000" fpd:visible="front" fpd:print_element="0" fpd:engraving_ral_9010="1" />
<path d="
M129.876 149.530
L127.688 145.673
A2.236,2.236 0 0,1 127.400,144.464
A0.314,0.314 0 0,1 127.803,144.176
A0.477,0.477 0 0,0 127.227,144.637
A2.602,2.602 0 0,0 127.573,145.961
L129.703 149.703
L130.221 149.703
L127.688 145.155
A1.354,1.354 0 0,1 127.515,144.464
A0.294,0.294 0 0,1 127.803,144.176
A2.581,2.581 0 0,1 129.472,145.327
" 
fill="none" vector-effect="non-scaling-stroke" stroke="#ffffff" stroke-width="0.400mm" stroke-opacity="1.000000" fpd:visible="front" fpd:print_element="0" fpd:engraving_ral_9010="1" />
<path d="
M129.473 145.327
L131.027 147.170
" 
fill="none" vector-effect="non-scaling-stroke" stroke="#ffffff" stroke-width="0.400mm" stroke-opacity="1.000000" fpd:visible="front" fpd:print_element="0" fpd:engraving_ral_9010="1" />
<path d="
M131.027 148.091
L132.582 148.091
" 
fill="none" vector-effect="non-scaling-stroke" stroke="#ffffff" stroke-width="0.400mm" stroke-opacity="1.000000" fpd:visible="front" fpd:print_element="0" fpd:engraving_ral_9010="1" />
<path d="
M132.640 149.530
L130.452 145.673
A2.236,2.236 0 0,1 130.164,144.464
A0.314,0.314 0 0,1 130.567,144.176
A0.477,0.477 0 0,0 129.991,144.637
A2.602,2.602 0 0,0 130.337,145.961
L132.467 149.703
L132.985 149.703
L130.452 145.155
A1.354,1.354 0 0,1 130.279,144.464
A0.294,0.294 0 0,1 130.567,144.176
A2.581,2.581 0 0,1 132.237,145.327
" 
fill="none" vector-effect="non-scaling-stroke" stroke="#ffffff" stroke-width="0.400mm" stroke-opacity="1.000000" fpd:visible="front" fpd:print_element="0" fpd:engraving_ral_9010="1" />
<path d="
M132.237 145.327
A7.074,7.074 0 0,0 133.676,146.709
A1.069,1.069 0 0,0 134.655,146.824
A0.575,0.575 0 0,0 134.885,145.903
A1.889,1.889 0 0,0 133.158,145.270
" 
fill="none" vector-effect="non-scaling-stroke" stroke="#ffffff" stroke-width="0.400mm" stroke-opacity="1.000000" fpd:visible="front" fpd:print_element="0" fpd:engraving_ral_9010="1" />
<path d="
M134.367 146.882
A1.710,1.710 0 0,1 133.676,146.306
A4.198,4.198 0 0,1 133.043,144.867
A0.573,0.573 0 0,1 133.331,144.234
A0.702,0.702 0 0,0 132.870,145.040
A2.690,2.690 0 0,0 134.137,146.824
L133.676 146.709
A2.755,2.755 0 0,1 132.698,145.327
A1.218,1.218 0 0,1 132.698,144.579
A0.506,0.506 0 0,1 133.101,144.234
A1.830,1.830 0 0,1 134.310,144.464
A3.923,3.923 0 0,1 135.346,145.327
" 
fill="none" vector-effect="non-scaling-stroke" stroke="#ffffff" stroke-width="0.400mm" stroke-opacity="1.000000" fpd:visible="front" fpd:print_element="0" fpd:engraving_ral_9010="1" />
<path d="
M135.346 145.326
L136.440 146.708
A0.407,0.407 0 0,1 136.497,147.111
A0.144,0.144 0 0,1 136.267,146.939
A8.631,8.631 0 0,1 137.188,146.363
A0.253,0.253 0 0,0 137.303,146.017
A26.195,26.195 0 0,0 136.497,144.578
A0.230,0.230 0 0,1 136.728,144.233
A0.270,0.270 0 0,0 136.325,144.405
A0.580,0.580 0 0,0 136.382,144.808
L137.073 146.075
A0.243,0.243 0 0,1 137.073,146.305
A0.696,0.696 0 0,1 136.785,146.593
A0.388,0.388 0 0,0 136.843,146.075
L136.152 144.866
A0.450,0.450 0 0,1 136.728,144.233
A1.989,1.989 0 0,1 137.246,144.578
A3.907,3.907 0 0,1 137.879,145.326
" 
fill="none" vector-effect="non-scaling-stroke" stroke="#ffffff" stroke-width="0.400mm" stroke-opacity="1.000000" fpd:visible="front" fpd:print_element="0" fpd:engraving_ral_9010="1" />
<path d="
M137.880 145.325
L138.225 145.786
A5.031,5.031 0 0,0 139.089,146.707
A0.314,0.314 0 0,0 139.550,146.592
A0.322,0.322 0 0,0 139.550,146.304
L138.801 144.807
A0.367,0.367 0 0,1 138.801,144.404
A0.342,0.342 0 0,1 139.204,144.232
A0.291,0.291 0 0,0 138.916,144.635
L139.550 145.844
A3.484,3.484 0 0,1 139.722,146.247
A0.425,0.425 0 0,1 139.089,146.707
A0.265,0.265 0 0,0 139.434,146.362
L138.628 144.807
A0.427,0.427 0 0,1 139.204,144.232
A4.024,4.024 0 0,1 140.874,145.325
L141.853 146.650
L139.607 142.677
A2.810,2.810 0 0,0 138.513,141.814
A2.477,2.477 0 0,1 139.434,142.735
L141.680 146.765
L142.198 146.765
L140.356 143.541
A5.816,5.816 0 0,0 139.607,142.504
A2.363,2.363 0 0,0 138.283,141.756
A0.404,0.404 0 0,0 137.822,142.274
A2.020,2.020 0 0,0 138.744,143.426
A6.988,6.988 0 0,0 140.356,144.116
A4.467,4.467 0 0,1 142.371,145.325
" 
fill="none" vector-effect="non-scaling-stroke" stroke="#ffffff" stroke-width="0.400mm" stroke-opacity="1.000000" fpd:visible="front" fpd:print_element="0" fpd:engraving_ral_9010="1" />
<path d="
M152.159 145.267
A2.556,2.556 0 0,0 151.180,144.461
A1.937,1.937 0 0,0 149.395,144.461
A20.867,20.867 0 0,0 148.244,145.094
A1.375,1.375 0 0,1 146.977,145.094
A0.444,0.444 0 0,1 146.977,144.288
A1.218,1.218 0 0,1 147.495,144.173
A2.502,2.502 0 0,1 148.417,144.346
A3.781,3.781 0 0,1 150.547,146.706
A11.137,11.137 0 0,0 151.929,149.527
A4.624,4.624 0 0,1 150.259,147.397
A9.515,9.515 0 0,0 148.417,144.346
L149.107 144.864
A7.919,7.919 0 0,1 150.086,146.303
L150.950 148.376
A4.395,4.395 0 0,0 151.929,149.527
A0.765,0.765 0 0,0 152.562,149.642
A0.563,0.563 0 0,0 152.965,148.952
A3.540,3.540 0 0,0 149.338,146.361
A1.494,1.494 0 0,0 148.417,148.952
A2.789,2.789 0 0,0 150.892,149.642
A3.181,3.181 0 0,1 149.798,149.642
A1.935,1.935 0 0,1 148.474,146.706
" 
fill="none" vector-effect="non-scaling-stroke" stroke="#ffffff" stroke-width="0.400mm" stroke-opacity="1.000000" fpd:visible="front" fpd:print_element="0" fpd:engraving_ral_9010="1" />
<path d="
M152.159 145.324
L152.389 145.612
A5.209,5.209 0 0,0 153.598,146.706
L154.116 146.821
A1.095,1.095 0 0,1 153.426,146.361
A7.381,7.381 0 0,1 152.677,144.921
A0.631,0.631 0 0,1 152.677,144.461
A0.463,0.463 0 0,1 153.195,144.173
A0.697,0.697 0 0,0 152.447,145.094
A3.565,3.565 0 0,0 153.598,146.706
A1.432,1.432 0 0,0 154.404,146.936
A0.647,0.647 0 0,0 155.038,146.303
A2.097,2.097 0 0,0 153.195,144.173
A0.355,0.355 0 0,0 152.850,144.634
A6.169,6.169 0 0,0 153.713,146.361
A1.039,1.039 0 0,0 154.807,146.764
" 
fill="none" vector-effect="non-scaling-stroke" stroke="#ffffff" stroke-width="0.400mm" stroke-opacity="1.000000" fpd:visible="front" fpd:print_element="0" fpd:engraving_ral_9010="1" />
<path d="
M154.116 144.864
A0.669,0.669 0 0,1 154.980,144.749
A1.912,1.912 0 0,1 155.498,145.324
" 
fill="none" vector-effect="non-scaling-stroke" stroke="#ffffff" stroke-width="0.400mm" stroke-opacity="1.000000" fpd:visible="front" fpd:print_element="0" fpd:engraving_ral_9010="1" />
<path d="
M155.499 145.323
L156.938 146.705
L156.017 145.036
A0.957,0.957 0 0,1 155.902,144.402
A0.139,0.139 0 0,1 156.017,144.287
A1.104,1.104 0 0,1 156.363,144.287
A0.229,0.229 0 0,0 156.132,144.517
A1.027,1.027 0 0,0 156.305,145.093
L157.226 146.763
L156.708 146.763
L155.787 145.093
A0.999,0.999 0 0,1 155.672,144.402
A0.307,0.307 0 0,1 156.075,144.172
A2.999,2.999 0 0,1 157.514,145.323
A16.862,16.862 0 0,0 158.550,146.532
A0.660,0.660 0 0,0 158.896,146.705
L157.975 145.036
A0.912,0.912 0 0,1 157.859,144.460
A0.201,0.201 0 0,1 158.032,144.287
A1.147,1.147 0 0,1 158.320,144.287
A0.235,0.235 0 0,0 158.090,144.517
A0.903,0.903 0 0,0 158.205,144.978
L159.184 146.763
L158.666 146.763
L157.744 145.093
A0.999,0.999 0 0,1 157.629,144.402
A0.307,0.307 0 0,1 158.032,144.172
A7.800,7.800 0 0,1 159.759,145.093
A2.535,2.535 0 0,1 160.565,145.957
A0.521,0.521 0 1,1 159.529,146.072
" 
fill="none" vector-effect="non-scaling-stroke" stroke="#ffffff" stroke-width="0.400mm" stroke-opacity="1.000000" fpd:visible="front" fpd:print_element="0" fpd:engraving_ral_9010="1" />
<path d="
M160.565 145.957
A0.481,0.481 0 0,1 159.875,146.590
A0.872,0.872 0 0,1 159.875,145.151
A0.760,0.760 0 0,1 160.911,145.323
" 
fill="none" vector-effect="non-scaling-stroke" stroke="#ffffff" stroke-width="0.400mm" stroke-opacity="1.000000" fpd:visible="front" fpd:print_element="0" fpd:engraving_ral_9010="1" />
<path d="
M165.285 147.971
L166.206 148.834
A1.100,1.100 0 0,0 166.782,149.122
A0.263,0.263 0 0,0 166.897,148.777
L166.609 148.259
A0.270,0.270 0 0,1 166.839,147.856
A0.978,0.978 0 0,1 167.415,148.028
A6.875,6.875 0 0,1 168.567,149.007
" 
fill="none" vector-effect="non-scaling-stroke" stroke="#ffffff" stroke-width="0.400mm" stroke-opacity="1.000000" fpd:visible="front" fpd:print_element="0" fpd:engraving_ral_9010="1" />
<path d="
M166.782 149.122
A0.258,0.258 0 0,0 167.070,148.777
L166.839 148.144
A0.182,0.182 0 0,1 167.127,147.971
A2.471,2.471 0 0,1 167.588,148.259
A13.473,13.473 0 0,1 169.142,149.698
A9.595,9.595 0 0,1 167.242,146.647
A9.991,9.991 0 0,1 166.897,145.438
A3.194,3.194 0 0,0 166.321,144.171
L166.955 145.092
L168.106 148.086
A6.969,6.969 0 0,0 168.739,149.237
L169.142 149.698
L168.739 149.237
A10.025,10.025 0 0,1 167.991,147.165
A6.910,6.910 0 0,0 166.321,144.171
A8.220,8.220 0 0,1 169.142,146.762
A7.894,7.894 0 0,0 172.079,149.698
" 
fill="none" vector-effect="non-scaling-stroke" stroke="#ffffff" stroke-width="0.400mm" stroke-opacity="1.000000" fpd:visible="front" fpd:print_element="0" fpd:engraving_ral_9010="1" />
<path d="
M170.121 145.322
L170.351 145.610
A5.209,5.209 0 0,0 171.560,146.704
L172.078 146.819
A1.095,1.095 0 0,1 171.388,146.359
A7.381,7.381 0 0,1 170.639,144.919
A0.631,0.631 0 0,1 170.639,144.459
A0.463,0.463 0 0,1 171.157,144.171
A0.697,0.697 0 0,0 170.409,145.092
A3.565,3.565 0 0,0 171.560,146.704
A1.432,1.432 0 0,0 172.366,146.934
A0.647,0.647 0 0,0 173.000,146.301
A2.097,2.097 0 0,0 171.157,144.171
A0.355,0.355 0 0,0 170.812,144.632
A6.169,6.169 0 0,0 171.675,146.359
A1.039,1.039 0 0,0 172.769,146.762
" 
fill="none" vector-effect="non-scaling-stroke" stroke="#ffffff" stroke-width="0.400mm" stroke-opacity="1.000000" fpd:visible="front" fpd:print_element="0" fpd:engraving_ral_9010="1" />
<path d="
M172.078 144.862
A0.669,0.669 0 0,1 172.942,144.747
A1.912,1.912 0 0,1 173.460,145.322
" 
fill="none" vector-effect="non-scaling-stroke" stroke="#ffffff" stroke-width="0.400mm" stroke-opacity="1.000000" fpd:visible="front" fpd:print_element="0" fpd:engraving_ral_9010="1" />
<path d="
M173.460 145.321
L176.627 149.524
L174.266 145.321
A1.149,1.149 0 0,1 174.151,144.458
A0.387,0.387 0 0,1 174.554,144.170
A0.294,0.294 0 0,0 174.266,144.458
A1.354,1.354 0 0,0 174.439,145.149
L176.972 149.697
L176.454 149.697
L174.324 145.955
A2.602,2.602 0 0,1 173.978,144.631
A0.477,0.477 0 0,1 174.554,144.170
A2.581,2.581 0 0,1 176.224,145.321
" 
fill="none" vector-effect="non-scaling-stroke" stroke="#ffffff" stroke-width="0.400mm" stroke-opacity="1.000000" fpd:visible="front" fpd:print_element="0" fpd:engraving_ral_9010="1" />
<path d="
M176.223 145.320
L177.777 147.163
" 
fill="none" vector-effect="non-scaling-stroke" stroke="#ffffff" stroke-width="0.400mm" stroke-opacity="1.000000" fpd:visible="front" fpd:print_element="0" fpd:engraving_ral_9010="1" />
<path d="
M177.777 148.084
L179.332 148.084
" 
fill="none" vector-effect="non-scaling-stroke" stroke="#ffffff" stroke-width="0.400mm" stroke-opacity="1.000000" fpd:visible="front" fpd:print_element="0" fpd:engraving_ral_9010="1" />
<path d="
M179.390 149.523
L177.202 145.666
A2.236,2.236 0 0,1 176.914,144.457
A0.314,0.314 0 0,1 177.317,144.169
A0.477,0.477 0 0,0 176.741,144.630
A2.602,2.602 0 0,0 177.087,145.954
L179.217 149.696
L179.735 149.696
L177.202 145.148
A1.354,1.354 0 0,1 177.029,144.457
A0.294,0.294 0 0,1 177.317,144.169
A2.581,2.581 0 0,1 178.987,145.320
" 
fill="none" vector-effect="non-scaling-stroke" stroke="#ffffff" stroke-width="0.400mm" stroke-opacity="1.000000" fpd:visible="front" fpd:print_element="0" fpd:engraving_ral_9010="1" />
<path d="
M178.986 145.320
A4.863,4.863 0 0,1 179.389,145.781
A3.300,3.300 0 0,0 181.059,146.933
A0.723,0.723 0 0,0 181.865,145.839
L181.577 145.320
A2.552,2.552 0 0,0 180.022,144.169
A0.493,0.493 0 0,0 179.562,144.745
A3.304,3.304 0 0,0 180.886,146.760
L180.425 146.645
A3.576,3.576 0 0,1 179.331,144.860
A0.565,0.565 0 0,1 180.022,144.169
A0.642,0.642 0 0,0 179.792,144.802
A3.241,3.241 0 0,0 181.346,146.933
" 
fill="none" vector-effect="non-scaling-stroke" stroke="#ffffff" stroke-width="0.400mm" stroke-opacity="1.000000" fpd:visible="front" fpd:print_element="0" fpd:engraving_ral_9010="1" />
<path d="
M182.556 146.702
L181.519 144.802
A0.341,0.341 0 0,1 181.577,144.399
A0.324,0.324 0 0,1 182.037,144.399
A0.289,0.289 0 0,0 181.750,144.802
L182.843 146.760
L182.383 146.760
L181.346 144.917
A0.692,0.692 0 0,1 181.231,144.572
A0.333,0.333 0 0,1 181.634,144.227
A1.298,1.298 0 0,1 182.268,144.572
L183.016 145.320
" 
fill="none" vector-effect="non-scaling-stroke" stroke="#ffffff" stroke-width="0.400mm" stroke-opacity="1.000000" fpd:visible="front" fpd:print_element="0" fpd:engraving_ral_9010="1" />
<path d="
M183.016 145.320
A5.175,5.175 0 0,1 183.477,145.781
A3.300,3.300 0 0,0 185.146,146.933
A0.723,0.723 0 0,0 185.952,145.839
L185.664 145.320
A2.552,2.552 0 0,0 184.110,144.169
A0.493,0.493 0 0,0 183.649,144.745
A3.413,3.413 0 0,0 185.031,146.817
L184.513 146.645
A3.576,3.576 0 0,1 183.419,144.860
A0.565,0.565 0 0,1 184.110,144.169
A0.642,0.642 0 0,0 183.880,144.802
A3.241,3.241 0 0,0 185.434,146.933
" 
fill="none" vector-effect="non-scaling-stroke" stroke="#ffffff" stroke-width="0.400mm" stroke-opacity="1.000000" fpd:visible="front" fpd:print_element="0" fpd:engraving_ral_9010="1" />
<path d="
M186.701 146.645
L184.283 142.557
L183.246 141.809
A3.226,3.226 0 0,1 184.455,143.133
L186.470 146.817
L187.046 146.817
L185.089 143.363
A3.437,3.437 0 0,0 183.246,141.809
A0.463,0.463 0 0,0 182.671,142.442
A2.542,2.542 0 0,0 183.880,143.651
A8.791,8.791 0 0,0 185.434,144.227
A4.664,4.664 0 0,1 186.643,144.745
A1.323,1.323 0 0,1 187.161,145.320
" 
fill="none" vector-effect="non-scaling-stroke" stroke="#ffffff" stroke-width="0.400mm" stroke-opacity="1.000000" fpd:visible="front" fpd:print_element="0" fpd:engraving_ral_9010="1" />
<path d="
M187.161 145.320
A7.074,7.074 0 0,0 188.600,146.702
A1.069,1.069 0 0,0 189.579,146.817
A0.575,0.575 0 0,0 189.809,145.896
A1.889,1.889 0 0,0 188.082,145.263
" 
fill="none" vector-effect="non-scaling-stroke" stroke="#ffffff" stroke-width="0.400mm" stroke-opacity="1.000000" fpd:visible="front" fpd:print_element="0" fpd:engraving_ral_9010="1" />
<path d="
M189.291 146.875
A1.710,1.710 0 0,1 188.600,146.299
A4.198,4.198 0 0,1 187.967,144.860
A0.573,0.573 0 0,1 188.255,144.227
A0.702,0.702 0 0,0 187.794,145.033
A2.690,2.690 0 0,0 189.061,146.817
L188.600 146.702
A2.755,2.755 0 0,1 187.622,145.320
A1.218,1.218 0 0,1 187.622,144.572
A0.506,0.506 0 0,1 188.025,144.227
A1.830,1.830 0 0,1 189.234,144.457
A3.923,3.923 0 0,1 190.270,145.320
" 
fill="none" vector-effect="non-scaling-stroke" stroke="#ffffff" stroke-width="0.400mm" stroke-opacity="1.000000" fpd:visible="front" fpd:print_element="0" fpd:engraving_ral_9010="1" />
<path d="
M199.307 148.544
L198.214 146.183
A4.987,4.987 0 0,0 196.659,144.456
A8.830,8.830 0 0,1 198.386,147.277
A4.624,4.624 0 0,0 200.056,149.407
A11.137,11.137 0 0,1 198.674,146.586
A3.680,3.680 0 0,0 196.544,144.341
A2.502,2.502 0 0,0 195.623,144.168
A0.966,0.966 0 0,0 194.817,144.398
A0.309,0.309 0 0,0 194.932,144.974
A2.867,2.867 0 0,0 196.889,144.513
A1.755,1.755 0 0,1 198.732,144.513
A3.179,3.179 0 0,1 200.113,148.486
A1.878,1.878 0 0,1 198.904,149.580
A3.390,3.390 0 0,1 195.277,148.428
A1.905,1.905 0 0,1 194.932,146.759
A0.721,0.721 0 0,1 195.508,146.241
A2.031,2.031 0 0,1 197.811,148.716
A2.031,2.031 0 0,0 195.508,146.241
A2.096,2.096 0 0,0 195.968,149.062
" 
fill="none" vector-effect="non-scaling-stroke" stroke="#ffffff" stroke-width="0.400mm" stroke-opacity="1.000000" fpd:visible="front" fpd:print_element="0" fpd:engraving_ral_9010="1" />
<path d="
M200.458 147.104
A0.997,0.997 0 0,0 200.400,148.198
A2.636,2.636 0 0,0 202.473,149.465
A2.482,2.482 0 0,1 200.285,148.601
A1.055,1.055 0 0,1 200.976,146.874
A4.540,4.540 0 0,1 204.776,148.313
A1.326,1.326 0 0,1 205.121,149.177
A0.478,0.478 0 0,1 204.488,149.637
A8.144,8.144 0 0,1 201.264,146.816
A2.268,2.268 0 0,1 201.091,144.916
A1.397,1.397 0 0,1 201.667,144.226
A1.317,1.317 0 0,0 201.149,145.204
A2.663,2.663 0 0,0 201.494,146.644
A8.304,8.304 0 0,0 204.143,149.465
A6.136,6.136 0 0,1 200.976,146.816
A2.017,2.017 0 0,1 200.976,144.801
A1.230,1.230 0 0,1 201.955,144.168
A1.833,1.833 0 0,1 203.912,145.780
A0.628,0.628 0 0,1 203.164,146.471
A1.117,1.117 0 0,1 202.300,145.089
A1.059,1.059 0 0,0 203.797,146.183
" 
fill="none" vector-effect="non-scaling-stroke" stroke="#ffffff" stroke-width="0.400mm" stroke-opacity="1.000000" fpd:visible="front" fpd:print_element="0" fpd:engraving_ral_9010="1" />
<path d="
M279.288 153.673
A0.073,0.073 0 0,1 279.251,153.784
A0.101,0.101 0 0,1 279.177,153.599
A0.185,0.185 0 0,1 279.362,153.599
A0.160,0.160 0 0,1 279.251,153.895
A0.410,0.410 0 0,1 278.918,153.525
A0.596,0.596 0 0,1 279.510,152.859
A1.607,1.607 0 0,1 280.102,152.970
A3.514,3.514 0 0,1 281.359,154.598
A6.201,6.201 0 0,0 282.358,156.262
A3.021,3.021 0 0,1 281.285,154.856
A5.945,5.945 0 0,0 280.102,152.970
A2.530,2.530 0 0,1 281.470,154.413
A7.337,7.337 0 0,0 282.469,156.225
A0.359,0.359 0 0,0 283.098,156.003
A1.080,1.080 0 0,0 282.876,155.411
A5.535,5.535 0 0,0 281.618,154.487
A1.445,1.445 0 0,0 280.250,154.450
A0.802,0.802 0 0,0 280.065,155.559
A1.924,1.924 0 0,0 281.100,156.336
A1.338,1.338 0 0,0 281.803,156.299
A1.589,1.589 0 0,1 279.917,155.633
A0.889,0.889 0 0,1 280.472,154.302
A1.675,1.675 0 0,1 281.544,154.413
A4.523,4.523 0 0,1 282.913,155.411
A1.102,1.102 0 0,1 283.172,155.966
A0.384,0.384 0 0,1 282.728,156.410
A0.983,0.983 0 0,1 282.358,156.262
" 
fill="none" vector-effect="non-scaling-stroke" stroke="#ffffff" stroke-width="0.400mm" stroke-opacity="1.000000" fpd:visible="front" fpd:print_element="0" fpd:engraving_ral_9010="1" />
<path d="
M282.766 152.599
L284.874 156.668
L285.059 156.668
L282.951 152.599
L282.766 152.599
" 
fill="none" vector-effect="non-scaling-stroke" stroke="#ffffff" stroke-width="0.400mm" stroke-opacity="1.000000" fpd:visible="front" fpd:print_element="0" fpd:engraving_ral_9010="1" />
<path d="
M285.652 154.706
A1.315,1.315 0 0,1 286.725,155.890
A1.149,1.149 0 0,0 285.948,154.669
A0.350,0.350 0 0,0 285.504,155.113
A1.959,1.959 0 0,0 286.799,156.371
A0.948,0.948 0 0,0 287.353,156.371
A0.479,0.479 0 0,0 287.686,155.964
A1.203,1.203 0 0,0 287.464,155.150
A3.432,3.432 0 0,1 287.132,154.596
A0.435,0.435 0 0,1 287.169,154.152
A0.402,0.402 0 0,0 286.984,154.448
A1.460,1.460 0 0,0 287.316,155.187
A1.637,1.637 0 0,1 287.612,155.890
A0.445,0.445 0 0,1 287.501,156.297
A0.507,0.507 0 0,0 287.464,155.705
A10.755,10.755 0 0,1 286.910,154.854
A0.485,0.485 0 0,1 287.169,154.152
A0.231,0.231 0 0,1 287.390,154.189
A5.611,5.611 0 0,1 288.241,154.817
A2.502,2.502 0 0,1 288.611,155.224
A50.435,50.435 0 0,0 287.871,153.819
A1.950,1.950 0 0,0 286.984,152.931
A1.711,1.711 0 0,1 287.649,153.745
A9.575,9.575 0 0,0 289.388,156.186
A3.851,3.851 0 0,1 288.574,154.854
A5.273,5.273 0 0,0 287.982,153.671
A1.816,1.816 0 0,0 286.466,152.857
A0.596,0.596 0 0,0 285.874,153.523
A0.410,0.410 0 0,0 286.207,153.893
A0.160,0.160 0 0,0 286.318,153.597
A0.185,0.185 0 0,0 286.133,153.597
A0.101,0.101 0 0,0 286.207,153.782
A0.073,0.073 0 0,0 286.244,153.671
" 
fill="none" vector-effect="non-scaling-stroke" stroke="#ffffff" stroke-width="0.400mm" stroke-opacity="1.000000" fpd:visible="front" fpd:print_element="0" fpd:engraving_ral_9010="1" />
<path d="
M291.720 153.670
A0.073,0.073 0 0,1 291.683,153.781
A0.101,0.101 0 0,1 291.609,153.596
A0.185,0.185 0 0,1 291.794,153.596
A0.160,0.160 0 0,1 291.683,153.892
A0.410,0.410 0 0,1 291.350,153.522
A0.596,0.596 0 0,1 291.942,152.856
A1.607,1.607 0 0,1 292.534,152.967
L292.978 153.300
A4.215,4.215 0 0,1 293.606,154.151
A11.896,11.896 0 0,0 294.383,155.852
A2.603,2.603 0 0,0 294.864,156.407
A7.860,7.860 0 0,1 293.902,154.410
A2.364,2.364 0 0,0 292.534,152.967
A5.945,5.945 0 0,1 293.717,154.853
A3.299,3.299 0 0,0 294.864,156.407
A2.113,2.113 0 0,1 294.235,155.926
L293.680 155.371
A0.344,0.344 0 0,0 293.347,155.334
A0.095,0.095 0 0,0 293.310,155.445
L293.458 155.852
A0.166,0.166 0 0,1 293.273,156.074
A0.949,0.949 0 0,1 292.904,155.889
L292.312 155.334
L292.904 155.815
A2.020,2.020 0 0,0 293.236,156.000
A0.093,0.093 0 0,0 293.347,155.852
L293.162 155.519
A0.174,0.174 0 0,1 293.310,155.260
A0.628,0.628 0 0,1 293.680,155.371
" 
fill="none" vector-effect="non-scaling-stroke" stroke="#ffffff" stroke-width="0.400mm" stroke-opacity="1.000000" fpd:visible="front" fpd:print_element="0" fpd:engraving_ral_9010="1" />
<path d="
M292.423 153.781
L292.756 154.003
A2.458,2.458 0 0,0 293.680,154.373
A8.834,8.834 0 0,1 296.048,155.149
A1.435,1.435 0 0,1 296.750,155.926
A0.358,0.358 0 0,1 296.196,156.333
A4.892,4.892 0 0,1 295.493,155.519
L295.086 154.927
A4.191,4.191 0 0,1 294.605,153.707
A0.603,0.603 0 0,1 294.790,153.041
A0.580,0.580 0 0,1 295.197,153.041
A0.883,0.883 0 0,1 295.493,153.189
A1.014,1.014 0 0,1 295.789,153.596
A0.788,0.788 0 0,0 294.864,153.152
A0.338,0.338 0 0,0 294.716,153.559
A5.772,5.772 0 0,0 295.419,155.223
A6.162,6.162 0 0,0 296.196,156.333
A5.274,5.274 0 0,1 294.531,154.114
A1.506,1.506 0 0,1 294.494,153.189
A0.519,0.519 0 0,1 294.753,152.893
A0.679,0.679 0 0,1 295.049,152.893
A1.107,1.107 0 0,1 295.789,153.596
" 
fill="none" vector-effect="non-scaling-stroke" stroke="#ffffff" stroke-width="0.400mm" stroke-opacity="1.000000" fpd:visible="front" fpd:print_element="0" fpd:engraving_ral_9010="1" />
<path d="
M295.788 153.595
A4.545,4.545 0 0,0 296.713,154.483
A0.687,0.687 0 0,0 297.342,154.557
A0.370,0.370 0 0,0 297.490,153.965
A1.214,1.214 0 0,0 296.380,153.558
" 
fill="none" vector-effect="non-scaling-stroke" stroke="#ffffff" stroke-width="0.400mm" stroke-opacity="1.000000" fpd:visible="front" fpd:print_element="0" fpd:engraving_ral_9010="1" />
<path d="
M297.157 154.594
A1.098,1.098 0 0,1 296.713,154.224
A2.697,2.697 0 0,1 296.306,153.299
A0.368,0.368 0 0,1 296.491,152.892
A0.451,0.451 0 0,0 296.195,153.410
A1.728,1.728 0 0,0 297.009,154.557
L296.713 154.483
A1.770,1.770 0 0,1 296.084,153.595
A0.782,0.782 0 0,1 296.084,153.114
A0.325,0.325 0 0,1 296.343,152.892
A1.175,1.175 0 0,1 297.120,153.040
A2.520,2.520 0 0,1 297.785,153.595
" 
fill="none" vector-effect="non-scaling-stroke" stroke="#ffffff" stroke-width="0.400mm" stroke-opacity="1.000000" fpd:visible="front" fpd:print_element="0" fpd:engraving_ral_9010="1" />
<path d="
M297.785 153.595
L299.819 156.295
L298.303 153.595
A0.738,0.738 0 0,1 298.229,153.040
A0.248,0.248 0 0,1 298.488,152.855
A0.189,0.189 0 0,0 298.303,153.040
A0.870,0.870 0 0,0 298.414,153.484
L300.041 156.406
L299.708 156.406
L298.340 154.002
A1.672,1.672 0 0,1 298.118,153.151
A0.307,0.307 0 0,1 298.488,152.855
A1.658,1.658 0 0,1 299.560,153.595
" 
fill="none" vector-effect="non-scaling-stroke" stroke="#ffffff" stroke-width="0.400mm" stroke-opacity="1.000000" fpd:visible="front" fpd:print_element="0" fpd:engraving_ral_9010="1" />
<path d="
M299.560 153.594
A4.545,4.545 0 0,0 300.485,154.482
A0.687,0.687 0 0,0 301.114,154.556
A0.370,0.370 0 0,0 301.262,153.964
A1.214,1.214 0 0,0 300.152,153.557
" 
fill="none" vector-effect="non-scaling-stroke" stroke="#ffffff" stroke-width="0.400mm" stroke-opacity="1.000000" fpd:visible="front" fpd:print_element="0" fpd:engraving_ral_9010="1" />
<path d="
M300.929 154.593
A1.098,1.098 0 0,1 300.485,154.223
A2.697,2.697 0 0,1 300.078,153.298
A0.368,0.368 0 0,1 300.263,152.891
A0.451,0.451 0 0,0 299.967,153.409
A1.728,1.728 0 0,0 300.781,154.556
L300.485 154.482
A1.770,1.770 0 0,1 299.856,153.594
A0.782,0.782 0 0,1 299.856,153.113
A0.325,0.325 0 0,1 300.115,152.891
A1.175,1.175 0 0,1 300.892,153.039
A2.520,2.520 0 0,1 301.557,153.594
" 
fill="none" vector-effect="non-scaling-stroke" stroke="#ffffff" stroke-width="0.400mm" stroke-opacity="1.000000" fpd:visible="front" fpd:print_element="0" fpd:engraving_ral_9010="1" />
<path d="
M301.557 153.594
L301.890 153.964
A3.133,3.133 0 0,0 302.482,154.482
A0.257,0.257 0 0,0 302.852,154.149
L302.186 152.854
L301.816 152.854
L302.556 154.223
A0.189,0.189 0 0,1 302.482,154.482
A0.180,0.180 0 0,0 302.667,154.445
A0.185,0.185 0 0,0 302.704,154.223
L302.038 152.928
L302.556 153.594
L302.741 153.779
A4.746,4.746 0 0,0 303.702,154.482
A0.202,0.202 0 0,0 303.998,154.408
A0.207,0.207 0 0,0 303.998,154.223
L303.480 153.187
A0.207,0.207 0 0,1 303.480,153.002
A0.232,0.232 0 0,1 303.776,152.891
A0.178,0.178 0 0,0 303.591,153.150
L303.998 153.927
A1.792,1.792 0 0,1 304.109,154.186
A0.264,0.264 0 0,1 303.702,154.482
A0.165,0.165 0 0,0 303.924,154.260
L303.406 153.261
A0.274,0.274 0 0,1 303.776,152.891
A1.836,1.836 0 0,1 304.516,153.594
" 
fill="none" vector-effect="non-scaling-stroke" stroke="#ffffff" stroke-width="0.400mm" stroke-opacity="1.000000" fpd:visible="front" fpd:print_element="0" fpd:engraving_ral_9010="1" />
<path d="
M304.516 153.593
A3.124,3.124 0 0,1 304.775,153.889
A2.120,2.120 0 0,0 305.848,154.629
A0.464,0.464 0 0,0 306.365,153.926
L306.181 153.593
A1.640,1.640 0 0,0 305.182,152.853
A0.317,0.317 0 0,0 304.886,153.223
A2.123,2.123 0 0,0 305.737,154.518
L305.441 154.444
A2.298,2.298 0 0,1 304.738,153.297
A0.363,0.363 0 0,1 305.182,152.853
A0.413,0.413 0 0,0 305.034,153.260
A2.082,2.082 0 0,0 306.033,154.629
" 
fill="none" vector-effect="non-scaling-stroke" stroke="#ffffff" stroke-width="0.400mm" stroke-opacity="1.000000" fpd:visible="front" fpd:print_element="0" fpd:engraving_ral_9010="1" />
<path d="
M306.809 154.481
L306.144 153.260
A0.219,0.219 0 0,1 306.181,153.001
A0.208,0.208 0 0,1 306.476,153.001
A0.185,0.185 0 0,0 306.292,153.260
L306.994 154.518
L306.698 154.518
L306.033 153.334
A0.445,0.445 0 0,1 305.959,153.112
A0.214,0.214 0 0,1 306.218,152.890
A0.834,0.834 0 0,1 306.624,153.112
L307.105 153.593
" 
fill="none" vector-effect="non-scaling-stroke" stroke="#ffffff" stroke-width="0.400mm" stroke-opacity="1.000000" fpd:visible="front" fpd:print_element="0" fpd:engraving_ral_9010="1" />
<path d="
M5.799 10.059
A2.000,2.000 0 0,1 7.799,8.059
L78.799 8.059
A2.000,2.000 0 0,1 80.799,10.059
L80.799 137.034
A2.000,2.000 0 0,1 78.799,139.034
L7.799 139.034
A2.000,2.000 0 0,1 5.799,137.034
L5.799 10.059
" 
fill="none" vector-effect="non-scaling-stroke" stroke="#ffffff" stroke-width="0.400mm" stroke-opacity="1.000000" fpd:visible="front" fpd:print_element="0" fpd:engraving_ral_9010="1" />
<path d="
M114.620 61.628
A0.621,0.621 0 0,1 114.160,60.822
A0.603,0.603 0 0,1 115.254,60.706
A1.054,1.054 0 0,1 114.620,62.261
A1.922,1.922 0 0,1 112.720,61.743
A0.935,0.935 0 0,1 112.605,60.591
A2.636,2.636 0 0,1 113.642,59.670
A0.129,0.129 0 0,1 113.757,59.900
A1.617,1.617 0 0,1 113.008,60.188
A1.577,1.577 0 0,0 114.620,62.261
A3.053,3.053 0 0,1 114.045,62.261
A1.483,1.483 0 0,1 113.469,62.088
A1.394,1.394 0 0,1 112.893,61.570
A1.430,1.430 0 0,1 112.720,61.109
A1.428,1.428 0 0,1 112.778,60.534
A1.190,1.190 0 0,1 112.951,60.246
L113.008 60.188
A3.295,3.295 0 0,1 110.763,59.094
A1.044,1.044 0 0,1 110.590,57.885
A1.928,1.928 0 0,1 113.469,57.252
A2.719,2.719 0 0,1 114.160,58.000
A0.647,0.647 0 0,1 113.584,59.037
A1.173,1.173 0 0,1 112.548,57.597
A1.300,1.300 0 0,0 113.354,58.922
A0.609,0.609 0 0,0 114.102,58.000
A2.719,2.719 0 0,0 113.411,57.252
A1.745,1.745 0 0,0 111.972,56.964
A1.462,1.462 0 0,0 111.281,59.037
A2.641,2.641 0 0,0 113.008,60.188
A2.678,2.678 0 0,1 112.202,59.958
A3.571,3.571 0 0,1 110.993,58.979
A1.048,1.048 0 0,1 110.878,57.885
A1.255,1.255 0 0,1 111.223,57.367
" 
fill="none" vector-effect="non-scaling-stroke" stroke="#ffffff" stroke-width="0.400mm" stroke-opacity="1.000000" fpd:visible="front" fpd:print_element="0" fpd:engraving_ral_9010="1" />
<path d="
M114.851 58.000
L115.369 58.576
A4.877,4.877 0 0,0 116.290,59.382
A0.399,0.399 0 0,0 116.866,58.864
L115.830 56.849
L115.254 56.849
L116.405 58.979
A0.295,0.295 0 0,1 116.290,59.382
A0.280,0.280 0 0,0 116.578,59.325
A0.288,0.288 0 0,0 116.636,58.979
L115.599 56.964
L116.405 58.000
L116.693 58.288
A7.387,7.387 0 0,0 118.190,59.382
A0.314,0.314 0 0,0 118.651,59.267
A0.322,0.322 0 0,0 118.651,58.979
L117.845 57.367
A0.322,0.322 0 0,1 117.845,57.079
A0.361,0.361 0 0,1 118.305,56.907
A0.278,0.278 0 0,0 118.018,57.310
L118.651 58.519
A2.789,2.789 0 0,1 118.824,58.922
A0.411,0.411 0 0,1 118.190,59.382
A0.256,0.256 0 0,0 118.536,59.037
L117.730 57.482
A0.427,0.427 0 0,1 118.305,56.907
A2.858,2.858 0 0,1 119.457,58.000
" 
fill="none" vector-effect="non-scaling-stroke" stroke="#ffffff" stroke-width="0.400mm" stroke-opacity="1.000000" fpd:visible="front" fpd:print_element="0" fpd:engraving_ral_9010="1" />
<path d="
M119.457 57.999
A5.175,5.175 0 0,1 119.918,58.460
A3.300,3.300 0 0,0 121.587,59.611
A0.723,0.723 0 0,0 122.393,58.518
L122.105 57.999
A2.552,2.552 0 0,0 120.551,56.848
A0.493,0.493 0 0,0 120.090,57.424
A3.413,3.413 0 0,0 121.472,59.496
L120.954 59.324
A3.576,3.576 0 0,1 119.860,57.539
A0.565,0.565 0 0,1 120.551,56.848
A0.642,0.642 0 0,0 120.321,57.481
A3.241,3.241 0 0,0 121.875,59.611
" 
fill="none" vector-effect="non-scaling-stroke" stroke="#ffffff" stroke-width="0.400mm" stroke-opacity="1.000000" fpd:visible="front" fpd:print_element="0" fpd:engraving_ral_9010="1" />
<path d="
M123.142 59.324
L120.724 55.236
L119.687 54.488
A3.226,3.226 0 0,1 120.896,55.812
L122.911 59.496
L123.487 59.496
L121.530 56.042
A3.437,3.437 0 0,0 119.687,54.488
A0.463,0.463 0 0,0 119.112,55.121
A2.542,2.542 0 0,0 120.321,56.330
A8.791,8.791 0 0,0 121.875,56.906
A4.664,4.664 0 0,1 123.084,57.424
A1.323,1.323 0 0,1 123.602,57.999
" 
fill="none" vector-effect="non-scaling-stroke" stroke="#ffffff" stroke-width="0.400mm" stroke-opacity="1.000000" fpd:visible="front" fpd:print_element="0" fpd:engraving_ral_9010="1" />
<path d="
M123.602 57.999
L124.753 59.208
L125.099 59.381
L124.178 57.769
A0.957,0.957 0 0,1 124.063,57.136
A0.139,0.139 0 0,1 124.178,57.021
A0.835,0.835 0 0,1 124.638,57.078
A0.233,0.233 0 0,0 124.293,57.309
A1.348,1.348 0 0,0 124.466,57.827
L125.387 59.439
L124.869 59.439
A19.661,19.661 0 0,0 123.947,57.827
A0.891,0.891 0 0,1 123.832,57.136
A0.318,0.318 0 0,1 124.235,56.906
A2.266,2.266 0 0,1 125.559,57.999
" 
fill="none" vector-effect="non-scaling-stroke" stroke="#ffffff" stroke-width="0.400mm" stroke-opacity="1.000000" fpd:visible="front" fpd:print_element="0" fpd:engraving_ral_9010="1" />
<path d="
M125.732 60.763
L125.847 60.590
L125.962 60.936
A0.272,0.272 0 1,1 125.675,60.475
A0.272,0.272 0 0,1 125.962,60.936
" 
fill="none" vector-effect="non-scaling-stroke" stroke="#ffffff" stroke-width="0.400mm" stroke-opacity="1.000000" fpd:visible="front" fpd:print_element="0" fpd:engraving_ral_9010="1" />
<path d="
M125.559 57.999
L126.077 58.575
A4.877,4.877 0 0,0 126.998,59.381
A0.399,0.399 0 0,0 127.574,58.863
L126.538 56.848
L125.962 56.848
L127.113 58.978
A0.295,0.295 0 0,1 126.998,59.381
A0.280,0.280 0 0,0 127.286,59.324
A0.288,0.288 0 0,0 127.344,58.978
L126.307 56.963
L127.113 57.999
L127.401 58.287
A7.387,7.387 0 0,0 128.898,59.381
A0.314,0.314 0 0,0 129.359,59.266
A0.322,0.322 0 0,0 129.359,58.978
L128.553 57.366
A0.322,0.322 0 0,1 128.553,57.078
A0.361,0.361 0 0,1 129.013,56.906
A0.278,0.278 0 0,0 128.726,57.309
L129.359 58.518
A2.789,2.789 0 0,1 129.532,58.921
A0.411,0.411 0 0,1 128.898,59.381
A0.256,0.256 0 0,0 129.244,59.036
L128.438 57.481
A0.427,0.427 0 0,1 129.013,56.906
A2.858,2.858 0 0,1 130.165,57.999
" 
fill="none" vector-effect="non-scaling-stroke" stroke="#ffffff" stroke-width="0.400mm" stroke-opacity="1.000000" fpd:visible="front" fpd:print_element="0" fpd:engraving_ral_9010="1" />
<path d="
M130.164 57.998
A7.074,7.074 0 0,0 131.603,59.380
A1.069,1.069 0 0,0 132.582,59.495
A0.575,0.575 0 0,0 132.812,58.574
A1.889,1.889 0 0,0 131.085,57.941
" 
fill="none" vector-effect="non-scaling-stroke" stroke="#ffffff" stroke-width="0.400mm" stroke-opacity="1.000000" fpd:visible="front" fpd:print_element="0" fpd:engraving_ral_9010="1" />
<path d="
M132.294 59.553
A1.710,1.710 0 0,1 131.603,58.977
A4.198,4.198 0 0,1 130.970,57.538
A0.573,0.573 0 0,1 131.258,56.905
A0.702,0.702 0 0,0 130.797,57.711
A2.690,2.690 0 0,0 132.064,59.495
L131.603 59.380
A2.755,2.755 0 0,1 130.625,57.998
A1.218,1.218 0 0,1 130.625,57.250
A0.506,0.506 0 0,1 131.028,56.905
A1.830,1.830 0 0,1 132.237,57.135
A3.923,3.923 0 0,1 133.273,57.998
" 
fill="none" vector-effect="non-scaling-stroke" stroke="#ffffff" stroke-width="0.400mm" stroke-opacity="1.000000" fpd:visible="front" fpd:print_element="0" fpd:engraving_ral_9010="1" />
<path d="
M184.589 58.113
A0.113,0.113 0 0,1 184.531,58.285
A0.157,0.157 0 0,1 184.416,57.997
A0.288,0.288 0 0,1 184.704,57.997
A0.250,0.250 0 0,1 184.531,58.458
A0.637,0.637 0 0,1 184.013,57.882
A0.928,0.928 0 0,1 184.934,56.846
A2.502,2.502 0 0,1 185.855,57.019
A5.469,5.469 0 0,1 187.813,59.552
A9.652,9.652 0 0,0 189.367,62.143
A4.702,4.702 0 0,1 187.698,59.955
A9.253,9.253 0 0,0 185.855,57.019
A3.938,3.938 0 0,1 187.986,59.264
A11.420,11.420 0 0,0 189.540,62.085
A0.559,0.559 0 0,0 190.519,61.740
A1.681,1.681 0 0,0 190.173,60.819
A8.614,8.614 0 0,0 188.216,59.379
A2.249,2.249 0 0,0 186.086,59.322
A1.248,1.248 0 0,0 185.798,61.049
A2.995,2.995 0 0,0 187.410,62.258
A2.082,2.082 0 0,0 188.504,62.200
A2.473,2.473 0 0,1 185.567,61.164
A1.384,1.384 0 0,1 186.431,59.091
A2.607,2.607 0 0,1 188.101,59.264
A7.040,7.040 0 0,1 190.231,60.819
A1.715,1.715 0 0,1 190.634,61.682
A0.597,0.597 0 0,1 189.943,62.373
A1.530,1.530 0 0,1 189.367,62.143
" 
fill="none" vector-effect="non-scaling-stroke" stroke="#ffffff" stroke-width="0.400mm" stroke-opacity="1.000000" fpd:visible="front" fpd:print_element="0" fpd:engraving_ral_9010="1" />
<path d="
M189.310 57.996
A7.074,7.074 0 0,0 190.749,59.378
A1.069,1.069 0 0,0 191.728,59.493
A0.575,0.575 0 0,0 191.958,58.572
A1.889,1.889 0 0,0 190.231,57.939
" 
fill="none" vector-effect="non-scaling-stroke" stroke="#ffffff" stroke-width="0.400mm" stroke-opacity="1.000000" fpd:visible="front" fpd:print_element="0" fpd:engraving_ral_9010="1" />
<path d="
M191.440 59.551
A1.710,1.710 0 0,1 190.749,58.975
A4.198,4.198 0 0,1 190.116,57.536
A0.573,0.573 0 0,1 190.404,56.903
A0.702,0.702 0 0,0 189.943,57.709
A2.690,2.690 0 0,0 191.210,59.493
L190.749 59.378
A2.755,2.755 0 0,1 189.771,57.996
A1.218,1.218 0 0,1 189.771,57.248
A0.506,0.506 0 0,1 190.174,56.903
A1.830,1.830 0 0,1 191.383,57.133
A3.923,3.923 0 0,1 192.419,57.996
" 
fill="none" vector-effect="non-scaling-stroke" stroke="#ffffff" stroke-width="0.400mm" stroke-opacity="1.000000" fpd:visible="front" fpd:print_element="0" fpd:engraving_ral_9010="1" />
<path d="
M192.419 57.995
L193.513 59.377
A0.407,0.407 0 0,1 193.570,59.780
A0.144,0.144 0 1,1 193.340,59.608
A8.631,8.631 0 0,1 194.261,59.032
A0.253,0.253 0 0,0 194.376,58.686
A26.195,26.195 0 0,0 193.570,57.247
A0.230,0.230 0 0,1 193.801,56.902
A0.270,0.270 0 0,0 193.398,57.074
A0.580,0.580 0 0,0 193.455,57.477
L194.146 58.744
A0.243,0.243 0 0,1 194.146,58.974
A0.696,0.696 0 0,1 193.858,59.262
A0.388,0.388 0 0,0 193.916,58.744
L193.225 57.535
A0.450,0.450 0 0,1 193.801,56.902
A1.989,1.989 0 0,1 194.319,57.247
A3.907,3.907 0 0,1 194.952,57.995
" 
fill="none" vector-effect="non-scaling-stroke" stroke="#ffffff" stroke-width="0.400mm" stroke-opacity="1.000000" fpd:visible="front" fpd:print_element="0" fpd:engraving_ral_9010="1" />
<path d="
M194.953 57.994
L195.701 58.973
A1.402,1.402 0 0,0 196.277,59.434
A0.414,0.414 0 0,0 196.853,59.088
A0.893,0.893 0 0,0 196.680,58.513
L195.989 57.361
A0.316,0.316 0 0,1 196.392,56.901
L196.104 56.843
A0.336,0.336 0 0,0 195.817,57.016
A0.532,0.532 0 0,0 195.817,57.534
L196.623 58.916
A0.303,0.303 0 0,1 196.565,59.319
A0.388,0.388 0 0,1 196.162,59.376
A0.260,0.260 0 0,0 196.392,58.973
L195.586 57.649
A0.537,0.537 0 0,1 196.104,56.843
A2.746,2.746 0 0,1 198.407,58.685
A0.495,0.495 0 0,1 197.544,59.146
A0.945,0.945 0 0,1 197.601,57.937
A0.830,0.830 0 0,1 198.868,57.994
" 
fill="none" vector-effect="non-scaling-stroke" stroke="#ffffff" stroke-width="0.400mm" stroke-opacity="1.000000" fpd:visible="front" fpd:print_element="0" fpd:engraving_ral_9010="1" />
<path d="
M198.350 58.570
A0.497,0.497 0 1,1 197.371,58.743
" 
fill="none" vector-effect="non-scaling-stroke" stroke="#ffffff" stroke-width="0.400mm" stroke-opacity="1.000000" fpd:visible="front" fpd:print_element="0" fpd:engraving_ral_9010="1" />
<path d="
M198.868 57.994
L200.019 59.203
L200.365 59.376
L199.444 57.764
A0.957,0.957 0 0,1 199.329,57.131
A0.139,0.139 0 0,1 199.444,57.016
A0.835,0.835 0 0,1 199.904,57.073
A0.233,0.233 0 0,0 199.559,57.304
A1.348,1.348 0 0,0 199.732,57.822
L200.653 59.434
L200.135 59.434
A19.661,19.661 0 0,0 199.213,57.822
A0.891,0.891 0 0,1 199.098,57.131
A0.318,0.318 0 0,1 199.501,56.901
A2.266,2.266 0 0,1 200.825,57.994
" 
fill="none" vector-effect="non-scaling-stroke" stroke="#ffffff" stroke-width="0.400mm" stroke-opacity="1.000000" fpd:visible="front" fpd:print_element="0" fpd:engraving_ral_9010="1" />
<path d="
M200.998 60.758
L201.113 60.585
L201.228 60.931
A0.272,0.272 0 0,1 200.941,60.470
A0.272,0.272 0 1,1 201.228,60.931
" 
fill="none" vector-effect="non-scaling-stroke" stroke="#ffffff" stroke-width="0.400mm" stroke-opacity="1.000000" fpd:visible="front" fpd:print_element="0" fpd:engraving_ral_9010="1" />
<path d="
M200.825 57.994
L201.055 58.282
A5.209,5.209 0 0,0 202.264,59.376
L202.552 59.434
A2.726,2.726 0 0,1 201.458,57.591
A0.628,0.628 0 0,1 201.919,56.901
A0.573,0.573 0 0,0 201.631,57.534
A4.198,4.198 0 0,0 202.264,58.973
A1.232,1.232 0 0,0 203.243,59.549
" 
fill="none" vector-effect="non-scaling-stroke" stroke="#ffffff" stroke-width="0.400mm" stroke-opacity="1.000000" fpd:visible="front" fpd:print_element="0" fpd:engraving_ral_9010="1" />
<path d="
M203.589 59.146
A0.153,0.153 0 0,1 203.301,59.088
A0.186,0.186 0 0,1 203.646,58.973
A0.357,0.357 0 0,1 203.473,59.491
A1.318,1.318 0 0,1 202.264,59.376
A2.755,2.755 0 0,1 201.286,57.994
A1.218,1.218 0 0,1 201.286,57.246
A0.506,0.506 0 0,1 201.689,56.901
A1.830,1.830 0 0,1 202.898,57.131
A3.923,3.923 0 0,1 203.934,57.994
" 
fill="none" vector-effect="non-scaling-stroke" stroke="#ffffff" stroke-width="0.400mm" stroke-opacity="1.000000" fpd:visible="front" fpd:print_element="0" fpd:engraving_ral_9010="1" />
<path d="
M203.933 57.993
A7.074,7.074 0 0,0 205.372,59.375
A1.069,1.069 0 0,0 206.351,59.490
A0.575,0.575 0 0,0 206.581,58.569
A1.889,1.889 0 0,0 204.854,57.936
" 
fill="none" vector-effect="non-scaling-stroke" stroke="#ffffff" stroke-width="0.400mm" stroke-opacity="1.000000" fpd:visible="front" fpd:print_element="0" fpd:engraving_ral_9010="1" />
<path d="
M206.063 59.548
A1.710,1.710 0 0,1 205.372,58.972
A4.198,4.198 0 0,1 204.739,57.533
A0.573,0.573 0 0,1 205.027,56.900
A0.702,0.702 0 0,0 204.566,57.706
A2.690,2.690 0 0,0 205.833,59.490
L205.372 59.375
A2.755,2.755 0 0,1 204.394,57.993
A1.218,1.218 0 0,1 204.394,57.245
A0.506,0.506 0 0,1 204.797,56.900
A1.830,1.830 0 0,1 206.006,57.130
A3.923,3.923 0 0,1 207.042,57.993
" 
fill="none" vector-effect="non-scaling-stroke" stroke="#ffffff" stroke-width="0.400mm" stroke-opacity="1.000000" fpd:visible="front" fpd:print_element="0" fpd:engraving_ral_9010="1" />
<path d="
M211.704 59.374
A19.993,19.993 0 0,1 216.482,62.368
A53.033,53.033 0 0,0 212.740,56.841
L212.395 56.841
L214.007 59.029
A8.665,8.665 0 0,0 214.525,59.662
A17.712,17.712 0 0,1 216.482,62.368
A8.225,8.225 0 0,0 215.331,60.065
L213.086 56.841
L212.740 56.841
" 
fill="none" vector-effect="non-scaling-stroke" stroke="#ffffff" stroke-width="0.400mm" stroke-opacity="1.000000" fpd:visible="front" fpd:print_element="0" fpd:engraving_ral_9010="1" />
<path d="
M162.745 10.056
A2.000,2.000 0 0,1 164.745,8.056
L235.745 8.056
A2.000,2.000 0 0,1 237.745,10.056
L237.745 137.031
A2.000,2.000 0 0,1 235.745,139.031
L164.745 139.031
A2.000,2.000 0 0,1 162.745,137.031
L162.745 10.056
" 
fill="none" vector-effect="non-scaling-stroke" stroke="#ffffff" stroke-width="0.400mm" stroke-opacity="1.000000" fpd:visible="front" fpd:print_element="0" fpd:engraving_ral_9010="1" />
<path d="
M262.478 58.113
A0.113,0.113 0 0,1 262.420,58.285
A0.157,0.157 0 0,1 262.305,57.997
A0.288,0.288 0 0,1 262.593,57.997
A0.250,0.250 0 0,1 262.420,58.458
A0.637,0.637 0 0,1 261.902,57.882
A0.928,0.928 0 0,1 262.823,56.846
A2.502,2.502 0 0,1 263.744,57.019
A5.469,5.469 0 0,1 265.702,59.552
A9.652,9.652 0 0,0 267.256,62.143
A4.702,4.702 0 0,1 265.587,59.955
A9.253,9.253 0 0,0 263.744,57.019
A3.938,3.938 0 0,1 265.875,59.264
A11.420,11.420 0 0,0 267.429,62.085
A0.559,0.559 0 0,0 268.408,61.740
A1.681,1.681 0 0,0 268.062,60.819
A8.614,8.614 0 0,0 266.105,59.379
A2.249,2.249 0 0,0 263.975,59.322
A1.248,1.248 0 0,0 263.687,61.049
A2.995,2.995 0 0,0 265.299,62.258
A2.082,2.082 0 0,0 266.393,62.200
A2.473,2.473 0 0,1 263.456,61.164
A1.384,1.384 0 0,1 264.320,59.091
A2.607,2.607 0 0,1 265.990,59.264
A7.040,7.040 0 0,1 268.120,60.819
A1.715,1.715 0 0,1 268.523,61.682
A0.597,0.597 0 0,1 267.832,62.373
A1.530,1.530 0 0,1 267.256,62.143
" 
fill="none" vector-effect="non-scaling-stroke" stroke="#ffffff" stroke-width="0.400mm" stroke-opacity="1.000000" fpd:visible="front" fpd:print_element="0" fpd:engraving_ral_9010="1" />
<path d="
M267.199 57.996
A7.074,7.074 0 0,0 268.638,59.378
A1.069,1.069 0 0,0 269.617,59.493
A0.575,0.575 0 0,0 269.847,58.572
A1.889,1.889 0 0,0 268.120,57.939
" 
fill="none" vector-effect="non-scaling-stroke" stroke="#ffffff" stroke-width="0.400mm" stroke-opacity="1.000000" fpd:visible="front" fpd:print_element="0" fpd:engraving_ral_9010="1" />
<path d="
M269.329 59.551
A1.710,1.710 0 0,1 268.638,58.975
A4.198,4.198 0 0,1 268.005,57.536
A0.573,0.573 0 0,1 268.293,56.903
A0.702,0.702 0 0,0 267.832,57.709
A2.690,2.690 0 0,0 269.099,59.493
L268.638 59.378
A2.755,2.755 0 0,1 267.660,57.996
A1.218,1.218 0 0,1 267.660,57.248
A0.506,0.506 0 0,1 268.063,56.903
A1.830,1.830 0 0,1 269.272,57.133
A3.923,3.923 0 0,1 270.308,57.996
" 
fill="none" vector-effect="non-scaling-stroke" stroke="#ffffff" stroke-width="0.400mm" stroke-opacity="1.000000" fpd:visible="front" fpd:print_element="0" fpd:engraving_ral_9010="1" />
<path d="
M270.308 57.995
L271.402 59.377
A0.407,0.407 0 0,1 271.459,59.780
A0.144,0.144 0 1,1 271.229,59.608
A8.631,8.631 0 0,1 272.150,59.032
A0.253,0.253 0 0,0 272.265,58.686
A26.195,26.195 0 0,0 271.459,57.247
A0.230,0.230 0 0,1 271.690,56.902
A0.270,0.270 0 0,0 271.287,57.074
A0.580,0.580 0 0,0 271.344,57.477
L272.035 58.744
A0.243,0.243 0 0,1 272.035,58.974
A0.696,0.696 0 0,1 271.747,59.262
A0.388,0.388 0 0,0 271.805,58.744
L271.114 57.535
A0.450,0.450 0 0,1 271.690,56.902
A1.989,1.989 0 0,1 272.208,57.247
A3.907,3.907 0 0,1 272.841,57.995
" 
fill="none" vector-effect="non-scaling-stroke" stroke="#ffffff" stroke-width="0.400mm" stroke-opacity="1.000000" fpd:visible="front" fpd:print_element="0" fpd:engraving_ral_9010="1" />
<path d="
M272.842 57.994
L273.590 58.973
A1.402,1.402 0 0,0 274.166,59.434
A0.414,0.414 0 0,0 274.742,59.088
A0.893,0.893 0 0,0 274.569,58.513
L273.878 57.361
A0.316,0.316 0 0,1 274.281,56.901
L273.993 56.843
A0.336,0.336 0 0,0 273.706,57.016
A0.532,0.532 0 0,0 273.706,57.534
L274.512 58.916
A0.303,0.303 0 0,1 274.454,59.319
A0.388,0.388 0 0,1 274.051,59.376
A0.260,0.260 0 0,0 274.281,58.973
L273.475 57.649
A0.537,0.537 0 0,1 273.993,56.843
A2.746,2.746 0 0,1 276.296,58.685
A0.495,0.495 0 0,1 275.433,59.146
A0.945,0.945 0 0,1 275.490,57.937
A0.830,0.830 0 0,1 276.757,57.994
" 
fill="none" vector-effect="non-scaling-stroke" stroke="#ffffff" stroke-width="0.400mm" stroke-opacity="1.000000" fpd:visible="front" fpd:print_element="0" fpd:engraving_ral_9010="1" />
<path d="
M276.239 58.570
A0.497,0.497 0 1,1 275.260,58.743
" 
fill="none" vector-effect="non-scaling-stroke" stroke="#ffffff" stroke-width="0.400mm" stroke-opacity="1.000000" fpd:visible="front" fpd:print_element="0" fpd:engraving_ral_9010="1" />
<path d="
M276.757 57.994
L277.908 59.203
L278.254 59.376
L277.333 57.764
A0.957,0.957 0 0,1 277.218,57.131
A0.139,0.139 0 0,1 277.333,57.016
A0.835,0.835 0 0,1 277.793,57.073
A0.233,0.233 0 0,0 277.448,57.304
A1.348,1.348 0 0,0 277.621,57.822
L278.542 59.434
L278.024 59.434
A19.661,19.661 0 0,0 277.102,57.822
A0.891,0.891 0 0,1 276.987,57.131
A0.318,0.318 0 0,1 277.390,56.901
A2.266,2.266 0 0,1 278.714,57.994
" 
fill="none" vector-effect="non-scaling-stroke" stroke="#ffffff" stroke-width="0.400mm" stroke-opacity="1.000000" fpd:visible="front" fpd:print_element="0" fpd:engraving_ral_9010="1" />
<path d="
M278.887 60.758
L279.002 60.585
L279.117 60.931
A0.272,0.272 0 0,1 278.830,60.470
A0.272,0.272 0 0,1 279.117,60.931
" 
fill="none" vector-effect="non-scaling-stroke" stroke="#ffffff" stroke-width="0.400mm" stroke-opacity="1.000000" fpd:visible="front" fpd:print_element="0" fpd:engraving_ral_9010="1" />
<path d="
M278.714 57.994
L278.944 58.282
A5.209,5.209 0 0,0 280.153,59.376
L280.441 59.434
A2.726,2.726 0 0,1 279.347,57.591
A0.628,0.628 0 0,1 279.808,56.901
A0.573,0.573 0 0,0 279.520,57.534
A4.198,4.198 0 0,0 280.153,58.973
A1.232,1.232 0 0,0 281.132,59.549
" 
fill="none" vector-effect="non-scaling-stroke" stroke="#ffffff" stroke-width="0.400mm" stroke-opacity="1.000000" fpd:visible="front" fpd:print_element="0" fpd:engraving_ral_9010="1" />
<path d="
M281.477 59.146
A0.153,0.153 0 0,1 281.190,59.088
A0.186,0.186 0 0,1 281.535,58.973
A0.357,0.357 0 0,1 281.362,59.491
A1.318,1.318 0 0,1 280.153,59.376
A2.755,2.755 0 0,1 279.175,57.994
A1.218,1.218 0 0,1 279.175,57.246
A0.506,0.506 0 0,1 279.578,56.901
A1.830,1.830 0 0,1 280.787,57.131
A3.923,3.923 0 0,1 281.823,57.994
" 
fill="none" vector-effect="non-scaling-stroke" stroke="#ffffff" stroke-width="0.400mm" stroke-opacity="1.000000" fpd:visible="front" fpd:print_element="0" fpd:engraving_ral_9010="1" />
<path d="
M281.822 57.993
A7.074,7.074 0 0,0 283.261,59.375
A1.069,1.069 0 0,0 284.240,59.490
A0.575,0.575 0 0,0 284.470,58.569
A1.889,1.889 0 0,0 282.743,57.936
" 
fill="none" vector-effect="non-scaling-stroke" stroke="#ffffff" stroke-width="0.400mm" stroke-opacity="1.000000" fpd:visible="front" fpd:print_element="0" fpd:engraving_ral_9010="1" />
<path d="
M283.952 59.548
A1.710,1.710 0 0,1 283.261,58.972
A4.198,4.198 0 0,1 282.628,57.533
A0.573,0.573 0 0,1 282.916,56.900
A0.702,0.702 0 0,0 282.455,57.706
A2.690,2.690 0 0,0 283.722,59.490
L283.261 59.375
A2.755,2.755 0 0,1 282.283,57.993
A1.218,1.218 0 0,1 282.283,57.245
A0.506,0.506 0 0,1 282.686,56.900
A1.830,1.830 0 0,1 283.895,57.130
A3.923,3.923 0 0,1 284.931,57.993
" 
fill="none" vector-effect="non-scaling-stroke" stroke="#ffffff" stroke-width="0.400mm" stroke-opacity="1.000000" fpd:visible="front" fpd:print_element="0" fpd:engraving_ral_9010="1" />
<path d="
M292.472 60.756
A1.259,1.259 0 0,0 291.205,59.950
A0.395,0.395 0 0,0 290.859,60.468
A2.506,2.506 0 0,0 293.796,62.310
A1.201,1.201 0 0,0 294.141,60.411
A13.194,13.194 0 0,0 291.090,58.280
A19.026,19.026 0 0,1 293.220,59.374
A5.515,5.515 0 0,1 294.429,60.353
A1.182,1.182 0 0,1 293.796,62.310
A1.310,1.310 0 0,0 293.796,60.353
A36.093,36.093 0 0,0 291.090,58.280
A12.359,12.359 0 0,1 289.881,57.302
A2.313,2.313 0 0,0 292.011,57.244
A1.578,1.578 0 0,1 294.026,57.647
A2.015,2.015 0 0,0 292.184,57.417
A2.012,2.012 0 0,1 289.881,57.302
A1.095,1.095 0 0,1 289.593,56.841
A1.607,1.607 0 0,0 291.665,57.129
A1.657,1.657 0 0,1 294.026,57.647
" 
fill="none" vector-effect="non-scaling-stroke" stroke="#ffffff" stroke-width="0.400mm" stroke-opacity="1.000000" fpd:visible="front" fpd:print_element="0" fpd:engraving_ral_9010="1" />
<path d="
M240.818 10.056
A2.000,2.000 0 0,1 242.818,8.056
L313.818 8.056
A2.000,2.000 0 0,1 315.818,10.056
L315.818 137.031
A2.000,2.000 0 0,1 313.818,139.031
L242.818 139.031
A2.000,2.000 0 0,1 240.818,137.031
L240.818 10.056
" 
fill="none" vector-effect="non-scaling-stroke" stroke="#ffffff" stroke-width="0.400mm" stroke-opacity="1.000000" fpd:visible="front" fpd:print_element="0" fpd:engraving_ral_9010="1" />
<path d="
M84.372 10.059
A2.000,2.000 0 0,1 86.372,8.059
L157.372 8.059
A2.000,2.000 0 0,1 159.372,10.059
L159.372 137.034
A2.000,2.000 0 0,1 157.372,139.034
L86.372 139.034
A2.000,2.000 0 0,1 84.372,137.034
L84.372 10.059
" 
fill="none" vector-effect="non-scaling-stroke" stroke="#ffffff" stroke-width="0.400mm" stroke-opacity="1.000000" fpd:visible="front" fpd:print_element="0" fpd:engraving_ral_9010="1" />
<path d="
M312.000 57.221
A3.500,3.500 0 1,0 305.000,57.221
A3.500,3.500 0 1,0 312.000,57.221
" 
fill="url(#revside-fill-silver)" vector-effect="non-scaling-stroke" stroke="#00d000" stroke-width="0.100mm" stroke-opacity="1.000000"  stroke-dasharray="1.5 1.5" fpd:visible="back" fpd:print_element="0" fpd:bolt="GU30 6000" />
<path d="
M310.000 57.221
A1.500,1.500 0 1,0 307.000,57.221
A1.500,1.500 0 1,0 310.000,57.221
" 
fill="url(#revside-fill-#808080)" opacity="1.000000" vector-effect="non-scaling-stroke" stroke="#00d000" stroke-width="0.100mm" stroke-opacity="1.000000"  stroke-dasharray="1.5 1.5" fpd:visible="back" fpd:print_element="0" fpd:bolt="GU30 6000" />
<path d="
M234.222 57.221
A3.500,3.500 0 1,0 227.222,57.221
A3.500,3.500 0 1,0 234.222,57.221
" 
fill="url(#revside-fill-silver)" vector-effect="non-scaling-stroke" stroke="#00d000" stroke-width="0.100mm" stroke-opacity="1.000000"  stroke-dasharray="1.5 1.5" fpd:visible="back" fpd:print_element="0" fpd:bolt="GU30 6000" />
<path d="
M232.222 57.221
A1.500,1.500 0 1,0 229.222,57.221
A1.500,1.500 0 1,0 232.222,57.221
" 
fill="url(#revside-fill-#808080)" opacity="1.000000" vector-effect="non-scaling-stroke" stroke="#00d000" stroke-width="0.100mm" stroke-opacity="1.000000"  stroke-dasharray="1.5 1.5" fpd:visible="back" fpd:print_element="0" fpd:bolt="GU30 6000" />
<path d="
M74.667 57.221
A3.500,3.500 0 1,0 67.667,57.221
A3.500,3.500 0 1,0 74.667,57.221
" 
fill="url(#revside-fill-silver)" vector-effect="non-scaling-stroke" stroke="#00d000" stroke-width="0.100mm" stroke-opacity="1.000000"  stroke-dasharray="1.5 1.5" fpd:visible="back" fpd:print_element="0" fpd:bolt="GU30 6000" />
<path d="
M72.667 57.221
A1.500,1.500 0 1,0 69.667,57.221
A1.500,1.500 0 1,0 72.667,57.221
" 
fill="url(#revside-fill-#808080)" opacity="1.000000" vector-effect="non-scaling-stroke" stroke="#00d000" stroke-width="0.100mm" stroke-opacity="1.000000"  stroke-dasharray="1.5 1.5" fpd:visible="back" fpd:print_element="0" fpd:bolt="GU30 6000" />
<path d="
M154.945 57.221
A3.500,3.500 0 1,0 147.945,57.221
A3.500,3.500 0 1,0 154.945,57.221
" 
fill="url(#revside-fill-silver)" vector-effect="non-scaling-stroke" stroke="#00d000" stroke-width="0.100mm" stroke-opacity="1.000000"  stroke-dasharray="1.5 1.5" fpd:visible="back" fpd:print_element="0" fpd:bolt="GU30 6000" />
<path d="
M152.945 57.221
A1.500,1.500 0 1,0 149.945,57.221
A1.500,1.500 0 1,0 152.945,57.221
" 
fill="url(#revside-fill-#808080)" opacity="1.000000" vector-effect="non-scaling-stroke" stroke="#00d000" stroke-width="0.100mm" stroke-opacity="1.000000"  stroke-dasharray="1.5 1.5" fpd:visible="back" fpd:print_element="0" fpd:bolt="GU30 6000" />
<path d="
M3.282 4.290
A1.500,1.500 0 1,0 6.282,4.290
A1.500,1.500 0 1,0 3.282,4.290
" 
fill="#ffffff" fill-opacity="1.000000" vector-effect="non-scaling-stroke" stroke="#000000" stroke-width="0.100mm" stroke-opacity="1.000000" fpd:visible="front back" fpd:print_element="0" />
<path d="
M3.282 155.290
A1.500,1.500 0 1,0 6.282,155.290
A1.500,1.500 0 1,0 3.282,155.290
" 
fill="#ffffff" fill-opacity="1.000000" vector-effect="non-scaling-stroke" stroke="#000000" stroke-width="0.100mm" stroke-opacity="1.000000" fpd:visible="front back" fpd:print_element="0" />
<path d="
M159.000 4.290
A1.500,1.500 0 1,0 162.000,4.290
A1.500,1.500 0 1,0 159.000,4.290
" 
fill="#ffffff" fill-opacity="1.000000" vector-effect="non-scaling-stroke" stroke="#000000" stroke-width="0.100mm" stroke-opacity="1.000000" fpd:visible="front back" fpd:print_element="0" />
<path d="
M314.817 4.290
A1.500,1.500 0 1,0 317.817,4.290
A1.500,1.500 0 1,0 314.817,4.290
" 
fill="#ffffff" fill-opacity="1.000000" vector-effect="non-scaling-stroke" stroke="#000000" stroke-width="0.100mm" stroke-opacity="1.000000" fpd:visible="front back" fpd:print_element="0" />
<path d="
M12.799 100.385
A30.500,30.500 0 1,0 73.799,100.385
A30.500,30.500 0 1,0 12.799,100.385
" 
fill="#ffffff" fill-opacity="1.000000" vector-effect="non-scaling-stroke" stroke="#000000" stroke-width="0.100mm" stroke-opacity="1.000000" fpd:visible="front back" fpd:print_element="0" />
<path d="
M28.299 29.968
A15.000,15.000 0 1,0 58.299,29.968
A15.000,15.000 0 1,0 28.299,29.968
" 
fill="#ffffff" fill-opacity="1.000000" vector-effect="non-scaling-stroke" stroke="#000000" stroke-width="0.100mm" stroke-opacity="1.000000" fpd:visible="front back" fpd:print_element="0" />
<path d="
M91.372 100.385
A30.500,30.500 0 1,0 152.372,100.385
A30.500,30.500 0 1,0 91.372,100.385
" 
fill="#ffffff" fill-opacity="1.000000" vector-effect="non-scaling-stroke" stroke="#000000" stroke-width="0.100mm" stroke-opacity="1.000000" fpd:visible="front back" fpd:print_element="0" />
<path d="
M314.817 155.290
A1.500,1.500 0 1,0 317.817,155.290
A1.500,1.500 0 1,0 314.817,155.290
" 
fill="#ffffff" fill-opacity="1.000000" vector-effect="non-scaling-stroke" stroke="#000000" stroke-width="0.100mm" stroke-opacity="1.000000" fpd:visible="front back" fpd:print_element="0" />
<path d="
M169.745 100.385
A30.500,30.500 0 1,0 230.745,100.385
A30.500,30.500 0 1,0 169.745,100.385
" 
fill="#ffffff" fill-opacity="1.000000" vector-effect="non-scaling-stroke" stroke="#000000" stroke-width="0.100mm" stroke-opacity="1.000000" fpd:visible="front back" fpd:print_element="0" />
<path d="
M185.245 29.968
A15.000,15.000 0 1,0 215.245,29.968
A15.000,15.000 0 1,0 185.245,29.968
" 
fill="#ffffff" fill-opacity="1.000000" vector-effect="non-scaling-stroke" stroke="#000000" stroke-width="0.100mm" stroke-opacity="1.000000" fpd:visible="front back" fpd:print_element="0" />
<path d="
M247.818 100.385
A30.500,30.500 0 1,0 308.818,100.385
A30.500,30.500 0 1,0 247.818,100.385
" 
fill="#ffffff" fill-opacity="1.000000" vector-effect="non-scaling-stroke" stroke="#000000" stroke-width="0.100mm" stroke-opacity="1.000000" fpd:visible="front back" fpd:print_element="0" />
<path d="
M263.318 29.968
A15.000,15.000 0 1,0 293.318,29.968
A15.000,15.000 0 1,0 263.318,29.968
" 
fill="#ffffff" fill-opacity="1.000000" vector-effect="non-scaling-stroke" stroke="#000000" stroke-width="0.100mm" stroke-opacity="1.000000" fpd:visible="front back" fpd:print_element="0" />
<path d="
M159.000 155.849
A1.500,1.500 0 1,0 162.000,155.849
A1.500,1.500 0 1,0 159.000,155.849
" 
fill="#ffffff" fill-opacity="1.000000" vector-effect="non-scaling-stroke" stroke="#000000" stroke-width="0.100mm" stroke-opacity="1.000000" fpd:visible="front back" fpd:print_element="0" />
<path d="
M106.872 29.968
A15.000,15.000 0 1,0 136.872,29.968
A15.000,15.000 0 1,0 106.872,29.968
" 
fill="#ffffff" fill-opacity="1.000000" vector-effect="non-scaling-stroke" stroke="#000000" stroke-width="0.100mm" stroke-opacity="1.000000" fpd:visible="front back" fpd:print_element="0" />
<path d="
M316.000 160.000
A5.000,5.000 0 0,0 321.000,155.000
L321.000 5.000
A5.000,5.000 0 0,0 316.000,0.000
L5.000 0.000
A5.000,5.000 0 0,0 0.000,5.000
L0.000 155.000
A5.000,5.000 0 0,0 5.000,160.000
L316.000 160.000
" 
fill="none" vector-effect="non-scaling-stroke" stroke="#000000" stroke-width="0.100mm" stroke-opacity="1.000000" fpd:visible="front back" />
<path d="
M316.000 160.000
A5.000,5.000 0 0,0 321.000,155.000
L321.000 5.000
A5.000,5.000 0 0,0 316.000,0.000
L5.000 0.000
A5.000,5.000 0 0,0 0.000,5.000
L0.000 155.000
A5.000,5.000 0 0,0 5.000,160.000
L316.000 160.000
M5.000 158.000
A3.000,3.000 0 0,1 2.000,155.000
L2.000 155.000
L2.000 5.000
L2.000 5.000
L2.000 5.000
L2.000 5.000
A3.000,3.000 0 0,1 5.000,2.000
L5.000 2.000
L316.000 2.000
L316.000 2.000
A3.000,3.000 0 0,1 319.000,5.000
L319.000 5.000
L319.000 155.000
L319.000 155.000
A3.000,3.000 0 0,1 318.991,155.235
A3.000,3.000 0 0,1 316.000,158.000
L5.000 158.000
" 
fill="#e0e0e0" fill-opacity="1.000000" vector-effect="non-scaling-stroke" stroke="#0000ff" stroke-width="0.100mm" stroke-opacity="1.000000" fpd:visible="front" />
<path d="
M316.000 160.000
A5.000,5.000 0 0,0 321.000,155.000
L321.000 5.000
A5.000,5.000 0 0,0 316.000,0.000
L5.000 0.000
A5.000,5.000 0 0,0 0.000,5.000
L0.000 155.000
A5.000,5.000 0 0,0 5.000,160.000
L316.000 160.000
" 
fill="none" vector-effect="non-scaling-stroke" stroke="#0000ff" stroke-width="0.100mm" stroke-opacity="1.000000" fpd:visible="front" />
</g>
  <defs>
    <pattern id="revside-fill-#808080" x="0" y="0" width="3.210" height="3.210" patternUnits="userSpaceOnUse">
      <line x1="0" y1="0" x2="3.210" y2="3.210000" style="stroke-width:0.321; stroke:#808080; stroke-dasharray:none;" />
      <line x1="0" y1="3.210" x2="3.210" y2="0" style="stroke-width:0.321; stroke:#808080; stroke-dasharray:none;" />
    </pattern>
  </defs>
</svg>
